<mxfile host="drawio-plugin" modified="2023-07-26T21:54:12.603Z" agent="5.0 (Windows NT 6.2; Win64; x64) AppleWebKit/537.36 (KHTML, like Gecko) Chrome/98.0.4758.102 Safari/537.36" etag="kL__87TybwBftpmvqNWF" version="20.5.3" type="embed" pages="3"><diagram id="C5RBs43oDa-KdzZeNtuy" name="person"><mxGraphModel dx="985" dy="524" grid="1" gridSize="10" guides="1" tooltips="1" connect="1" arrows="1" fold="1" page="1" pageScale="1" pageWidth="827" pageHeight="1169" math="0" shadow="0"><root><mxCell id="WIyWlLk6GJQsqaUBKTNV-0"/><mxCell id="WIyWlLk6GJQsqaUBKTNV-1" parent="WIyWlLk6GJQsqaUBKTNV-0"/><mxCell id="73" style="edgeStyle=orthogonalEdgeStyle;rounded=0;orthogonalLoop=1;jettySize=auto;html=1;entryX=0.5;entryY=0;entryDx=0;entryDy=0;" parent="WIyWlLk6GJQsqaUBKTNV-1" edge="1"><mxGeometry relative="1" as="geometry"><mxPoint x="279.9999999999998" y="175.0000000000001" as="sourcePoint"/></mxGeometry></mxCell><mxCell id="336" style="edgeStyle=orthogonalEdgeStyle;rounded=0;orthogonalLoop=1;jettySize=auto;html=1;exitX=0.5;exitY=1;exitDx=0;exitDy=0;entryX=0.52;entryY=-0.019;entryDx=0;entryDy=0;entryPerimeter=0;" parent="WIyWlLk6GJQsqaUBKTNV-1" source="96" target="112" edge="1"><mxGeometry relative="1" as="geometry"/></mxCell><mxCell id="337" style="edgeStyle=orthogonalEdgeStyle;rounded=0;orthogonalLoop=1;jettySize=auto;html=1;exitX=0.5;exitY=1;exitDx=0;exitDy=0;entryX=0.528;entryY=0;entryDx=0;entryDy=0;entryPerimeter=0;" parent="WIyWlLk6GJQsqaUBKTNV-1" source="96" target="131" edge="1"><mxGeometry relative="1" as="geometry"/></mxCell><mxCell id="96" value="perso" style="swimlane;fontStyle=0;childLayout=stackLayout;horizontal=1;startSize=26;fillColor=none;horizontalStack=0;resizeParent=1;resizeParentMax=0;resizeLast=0;collapsible=1;marginBottom=0;" parent="WIyWlLk6GJQsqaUBKTNV-1" vertex="1"><mxGeometry x="320.93" y="170" width="200" height="104" as="geometry"/></mxCell><mxCell id="97" value="string: Name" style="text;strokeColor=none;fillColor=none;align=left;verticalAlign=top;spacingLeft=4;spacingRight=4;overflow=hidden;rotatable=0;points=[[0,0.5],[1,0.5]];portConstraint=eastwest;" parent="96" vertex="1"><mxGeometry y="26" width="200" height="26" as="geometry"/></mxCell><mxCell id="101" value="HM&lt;Inventory&gt;: inventory" style="text;strokeColor=none;fillColor=none;align=left;verticalAlign=top;spacingLeft=4;spacingRight=4;overflow=hidden;rotatable=0;points=[[0,0.5],[1,0.5]];portConstraint=eastwest;" parent="96" vertex="1"><mxGeometry y="52" width="200" height="26" as="geometry"/></mxCell><mxCell id="102" value="int: weapon(index from inventoy)" style="text;strokeColor=none;fillColor=none;align=left;verticalAlign=top;spacingLeft=4;spacingRight=4;overflow=hidden;rotatable=0;points=[[0,0.5],[1,0.5]];portConstraint=eastwest;" parent="96" vertex="1"><mxGeometry y="78" width="200" height="26" as="geometry"/></mxCell><mxCell id="151" value="" style="edgeStyle=orthogonalEdgeStyle;rounded=0;orthogonalLoop=1;jettySize=auto;html=1;" parent="WIyWlLk6GJQsqaUBKTNV-1" source="112" target="145" edge="1"><mxGeometry relative="1" as="geometry"/></mxCell><mxCell id="112" value="enemy" style="swimlane;fontStyle=0;childLayout=stackLayout;horizontal=1;startSize=26;fillColor=none;horizontalStack=0;resizeParent=1;resizeParentMax=0;resizeLast=0;collapsible=1;marginBottom=0;" parent="WIyWlLk6GJQsqaUBKTNV-1" vertex="1"><mxGeometry x="79.93" y="370" width="200" height="156" as="geometry"/></mxCell><mxCell id="117" value="Race: race" style="text;strokeColor=none;fillColor=none;align=left;verticalAlign=top;spacingLeft=4;spacingRight=4;overflow=hidden;rotatable=0;points=[[0,0.5],[1,0.5]];portConstraint=eastwest;" parent="112" vertex="1"><mxGeometry y="26" width="200" height="26" as="geometry"/></mxCell><mxCell id="98" value="Level: level" style="text;strokeColor=none;fillColor=none;align=left;verticalAlign=top;spacingLeft=4;spacingRight=4;overflow=hidden;rotatable=0;points=[[0,0.5],[1,0.5]];portConstraint=eastwest;" parent="112" vertex="1"><mxGeometry y="52" width="200" height="26" as="geometry"/></mxCell><mxCell id="99" value="double: hp" style="text;strokeColor=none;fillColor=none;align=left;verticalAlign=top;spacingLeft=4;spacingRight=4;overflow=hidden;rotatable=0;points=[[0,0.5],[1,0.5]];portConstraint=eastwest;" parent="112" vertex="1"><mxGeometry y="78" width="200" height="26" as="geometry"/></mxCell><mxCell id="127" value="double: attack" style="text;strokeColor=none;fillColor=none;align=left;verticalAlign=top;spacingLeft=4;spacingRight=4;overflow=hidden;rotatable=0;points=[[0,0.5],[1,0.5]];portConstraint=eastwest;" parent="112" vertex="1"><mxGeometry y="104" width="200" height="26" as="geometry"/></mxCell><mxCell id="129" value="double:defense" style="text;strokeColor=none;fillColor=none;align=left;verticalAlign=top;spacingLeft=4;spacingRight=4;overflow=hidden;rotatable=0;points=[[0,0.5],[1,0.5]];portConstraint=eastwest;" parent="112" vertex="1"><mxGeometry y="130" width="200" height="26" as="geometry"/></mxCell><mxCell id="131" value="player" style="swimlane;fontStyle=0;childLayout=stackLayout;horizontal=1;startSize=26;fillColor=none;horizontalStack=0;resizeParent=1;resizeParentMax=0;resizeLast=0;collapsible=1;marginBottom=0;" parent="WIyWlLk6GJQsqaUBKTNV-1" vertex="1"><mxGeometry x="560.9300000000001" y="370" width="200" height="156" as="geometry"/></mxCell><mxCell id="132" value="Race: race" style="text;strokeColor=none;fillColor=none;align=left;verticalAlign=top;spacingLeft=4;spacingRight=4;overflow=hidden;rotatable=0;points=[[0,0.5],[1,0.5]];portConstraint=eastwest;" parent="131" vertex="1"><mxGeometry y="26" width="200" height="26" as="geometry"/></mxCell><mxCell id="325" value="Level:level" style="text;strokeColor=none;fillColor=none;align=left;verticalAlign=top;spacingLeft=4;spacingRight=4;overflow=hidden;rotatable=0;points=[[0,0.5],[1,0.5]];portConstraint=eastwest;" parent="131" vertex="1"><mxGeometry y="52" width="200" height="26" as="geometry"/></mxCell><mxCell id="xANGY-mDnd3-DUMO9tf_-337" value="double:hp" style="text;strokeColor=none;fillColor=none;align=left;verticalAlign=top;spacingLeft=4;spacingRight=4;overflow=hidden;rotatable=0;points=[[0,0.5],[1,0.5]];portConstraint=eastwest;" parent="131" vertex="1"><mxGeometry y="78" width="200" height="26" as="geometry"/></mxCell><mxCell id="133" value="double: attack" style="text;strokeColor=none;fillColor=none;align=left;verticalAlign=top;spacingLeft=4;spacingRight=4;overflow=hidden;rotatable=0;points=[[0,0.5],[1,0.5]];portConstraint=eastwest;" parent="131" vertex="1"><mxGeometry y="104" width="200" height="26" as="geometry"/></mxCell><mxCell id="135" value="double:defense" style="text;strokeColor=none;fillColor=none;align=left;verticalAlign=top;spacingLeft=4;spacingRight=4;overflow=hidden;rotatable=0;points=[[0,0.5],[1,0.5]];portConstraint=eastwest;" parent="131" vertex="1"><mxGeometry y="130" width="200" height="26" as="geometry"/></mxCell><mxCell id="145" value="boss" style="swimlane;fontStyle=0;childLayout=stackLayout;horizontal=1;startSize=26;fillColor=none;horizontalStack=0;resizeParent=1;resizeParentMax=0;resizeLast=0;collapsible=1;marginBottom=0;" parent="WIyWlLk6GJQsqaUBKTNV-1" vertex="1"><mxGeometry x="79.93" y="570" width="200" height="78" as="geometry"/></mxCell><mxCell id="147" value="double: attack" style="text;strokeColor=none;fillColor=none;align=left;verticalAlign=top;spacingLeft=4;spacingRight=4;overflow=hidden;rotatable=0;points=[[0,0.5],[1,0.5]];portConstraint=eastwest;" parent="145" vertex="1"><mxGeometry y="26" width="200" height="26" as="geometry"/></mxCell><mxCell id="149" value="double:defense" style="text;strokeColor=none;fillColor=none;align=left;verticalAlign=top;spacingLeft=4;spacingRight=4;overflow=hidden;rotatable=0;points=[[0,0.5],[1,0.5]];portConstraint=eastwest;" parent="145" vertex="1"><mxGeometry y="52" width="200" height="26" as="geometry"/></mxCell><mxCell id="334" style="edgeStyle=orthogonalEdgeStyle;rounded=0;orthogonalLoop=1;jettySize=auto;html=1;exitX=-0.011;exitY=0.173;exitDx=0;exitDy=0;entryX=1;entryY=0.5;entryDx=0;entryDy=0;exitPerimeter=0;" parent="WIyWlLk6GJQsqaUBKTNV-1" source="326" target="98" edge="1"><mxGeometry relative="1" as="geometry"/></mxCell><mxCell id="335" style="edgeStyle=orthogonalEdgeStyle;rounded=0;orthogonalLoop=1;jettySize=auto;html=1;exitX=0.996;exitY=0.16;exitDx=0;exitDy=0;entryX=0;entryY=0.5;entryDx=0;entryDy=0;exitPerimeter=0;" parent="WIyWlLk6GJQsqaUBKTNV-1" source="326" target="325" edge="1"><mxGeometry relative="1" as="geometry"/></mxCell><mxCell id="326" value="Level" style="swimlane;fontStyle=0;childLayout=stackLayout;horizontal=1;startSize=26;fillColor=none;horizontalStack=0;resizeParent=1;resizeParentMax=0;resizeLast=0;collapsible=1;marginBottom=0;" parent="WIyWlLk6GJQsqaUBKTNV-1" vertex="1"><mxGeometry x="349.93" y="390" width="140" height="130" as="geometry"/></mxCell><mxCell id="327" value="int: level" style="text;strokeColor=none;fillColor=none;align=left;verticalAlign=top;spacingLeft=4;spacingRight=4;overflow=hidden;rotatable=0;points=[[0,0.5],[1,0.5]];portConstraint=eastwest;" parent="326" vertex="1"><mxGeometry y="26" width="140" height="26" as="geometry"/></mxCell><mxCell id="328" value="double: xp" style="text;strokeColor=none;fillColor=none;align=left;verticalAlign=top;spacingLeft=4;spacingRight=4;overflow=hidden;rotatable=0;points=[[0,0.5],[1,0.5]];portConstraint=eastwest;" parent="326" vertex="1"><mxGeometry y="52" width="140" height="26" as="geometry"/></mxCell><mxCell id="134" value="double:attCof" style="text;strokeColor=none;fillColor=none;align=left;verticalAlign=top;spacingLeft=4;spacingRight=4;overflow=hidden;rotatable=0;points=[[0,0.5],[1,0.5]];portConstraint=eastwest;" parent="326" vertex="1"><mxGeometry y="78" width="140" height="26" as="geometry"/></mxCell><mxCell id="136" value="double:defCof" style="text;strokeColor=none;fillColor=none;align=left;verticalAlign=top;spacingLeft=4;spacingRight=4;overflow=hidden;rotatable=0;points=[[0,0.5],[1,0.5]];portConstraint=eastwest;" parent="326" vertex="1"><mxGeometry y="104" width="140" height="26" as="geometry"/></mxCell><mxCell id="lFHYyqauc991xJf7eCY5-337" value="Actor" style="shape=umlActor;verticalLabelPosition=bottom;verticalAlign=top;html=1;" parent="WIyWlLk6GJQsqaUBKTNV-1" vertex="1"><mxGeometry x="404.93" y="540" width="30" height="60" as="geometry"/></mxCell><mxCell id="MCOtuKo8a-3dvUEq5Acp-338" style="text;strokeColor=none;fillColor=none;align=left;verticalAlign=top;spacingLeft=4;spacingRight=4;overflow=hidden;rotatable=0;points=[[0,0.5],[1,0.5]];portConstraint=eastwest;" vertex="1" parent="WIyWlLk6GJQsqaUBKTNV-1"><mxGeometry x="349.93" y="520" width="140" height="26" as="geometry"/></mxCell><mxCell id="MCOtuKo8a-3dvUEq5Acp-337" style="text;strokeColor=none;fillColor=none;align=left;verticalAlign=top;spacingLeft=4;spacingRight=4;overflow=hidden;rotatable=0;points=[[0,0.5],[1,0.5]];portConstraint=eastwest;" vertex="1" parent="WIyWlLk6GJQsqaUBKTNV-1"><mxGeometry x="349.93" y="494" width="140" height="26" as="geometry"/></mxCell></root></mxGraphModel></diagram><diagram id="duWiw703bRfVZkbHXo8S" name="Inventory(weapon,UItems)"><mxGraphModel dx="1719" dy="462" grid="1" gridSize="10" guides="1" tooltips="1" connect="1" arrows="1" fold="1" page="1" pageScale="1" pageWidth="850" pageHeight="1100" math="0" shadow="0"><root><mxCell id="0"/><mxCell id="1" parent="0"/><mxCell id="lkY52QnpI_cOLhnNYV2R-1" value="Axe" style="swimlane;fontStyle=0;childLayout=stackLayout;horizontal=1;startSize=26;fillColor=none;horizontalStack=0;resizeParent=1;resizeParentMax=0;resizeLast=0;collapsible=1;marginBottom=0;" parent="1" vertex="1"><mxGeometry x="140" y="740" width="140" height="52" as="geometry"/></mxCell><mxCell id="lkY52QnpI_cOLhnNYV2R-2" value="double: attack 2.0" style="text;strokeColor=none;fillColor=none;align=left;verticalAlign=top;spacingLeft=4;spacingRight=4;overflow=hidden;rotatable=0;points=[[0,0.5],[1,0.5]];portConstraint=eastwest;" parent="lkY52QnpI_cOLhnNYV2R-1" vertex="1"><mxGeometry y="26" width="140" height="26" as="geometry"/></mxCell><mxCell id="lkY52QnpI_cOLhnNYV2R-3" value="Sword" style="swimlane;fontStyle=0;childLayout=stackLayout;horizontal=1;startSize=26;fillColor=none;horizontalStack=0;resizeParent=1;resizeParentMax=0;resizeLast=0;collapsible=1;marginBottom=0;" parent="1" vertex="1"><mxGeometry y="740" width="140" height="52" as="geometry"/></mxCell><mxCell id="lkY52QnpI_cOLhnNYV2R-4" value="double: attack 4.0" style="text;strokeColor=none;fillColor=none;align=left;verticalAlign=top;spacingLeft=4;spacingRight=4;overflow=hidden;rotatable=0;points=[[0,0.5],[1,0.5]];portConstraint=eastwest;" parent="lkY52QnpI_cOLhnNYV2R-3" vertex="1"><mxGeometry y="26" width="140" height="26" as="geometry"/></mxCell><mxCell id="lkY52QnpI_cOLhnNYV2R-5" value="baculus" style="swimlane;fontStyle=0;childLayout=stackLayout;horizontal=1;startSize=26;fillColor=none;horizontalStack=0;resizeParent=1;resizeParentMax=0;resizeLast=0;collapsible=1;marginBottom=0;" parent="1" vertex="1"><mxGeometry x="-140" y="740" width="140" height="52" as="geometry"/></mxCell><mxCell id="lkY52QnpI_cOLhnNYV2R-6" value="double: attack 3.0" style="text;strokeColor=none;fillColor=none;align=left;verticalAlign=top;spacingLeft=4;spacingRight=4;overflow=hidden;rotatable=0;points=[[0,0.5],[1,0.5]];portConstraint=eastwest;" parent="lkY52QnpI_cOLhnNYV2R-5" vertex="1"><mxGeometry y="26" width="140" height="26" as="geometry"/></mxCell><mxCell id="lkY52QnpI_cOLhnNYV2R-7" value="Hammer" style="swimlane;fontStyle=0;childLayout=stackLayout;horizontal=1;startSize=26;fillColor=none;horizontalStack=0;resizeParent=1;resizeParentMax=0;resizeLast=0;collapsible=1;marginBottom=0;" parent="1" vertex="1"><mxGeometry x="-280" y="740" width="140" height="52" as="geometry"/></mxCell><mxCell id="lkY52QnpI_cOLhnNYV2R-8" value="double: attack 3.0" style="text;strokeColor=none;fillColor=none;align=left;verticalAlign=top;spacingLeft=4;spacingRight=4;overflow=hidden;rotatable=0;points=[[0,0.5],[1,0.5]];portConstraint=eastwest;" parent="lkY52QnpI_cOLhnNYV2R-7" vertex="1"><mxGeometry y="26" width="140" height="26" as="geometry"/></mxCell><mxCell id="lkY52QnpI_cOLhnNYV2R-9" style="edgeStyle=orthogonalEdgeStyle;rounded=0;orthogonalLoop=1;jettySize=auto;html=1;exitX=0.5;exitY=1;exitDx=0;exitDy=0;entryX=0.5;entryY=0;entryDx=0;entryDy=0;" parent="1" source="lkY52QnpI_cOLhnNYV2R-11" target="lkY52QnpI_cOLhnNYV2R-13" edge="1"><mxGeometry relative="1" as="geometry"/></mxCell><mxCell id="lkY52QnpI_cOLhnNYV2R-10" style="edgeStyle=orthogonalEdgeStyle;rounded=0;orthogonalLoop=1;jettySize=auto;html=1;exitX=0.5;exitY=1;exitDx=0;exitDy=0;entryX=0.5;entryY=0;entryDx=0;entryDy=0;" parent="1" source="lkY52QnpI_cOLhnNYV2R-11" target="lkY52QnpI_cOLhnNYV2R-21" edge="1"><mxGeometry relative="1" as="geometry"/></mxCell><mxCell id="8mEIFu0-KQNCQhnWPLar-3" style="edgeStyle=orthogonalEdgeStyle;rounded=0;orthogonalLoop=1;jettySize=auto;html=1;exitX=0.5;exitY=1;exitDx=0;exitDy=0;entryX=0.5;entryY=0;entryDx=0;entryDy=0;" edge="1" parent="1" source="lkY52QnpI_cOLhnNYV2R-11"><mxGeometry relative="1" as="geometry"><mxPoint x="-355" y="472" as="targetPoint"/></mxGeometry></mxCell><mxCell id="lkY52QnpI_cOLhnNYV2R-11" value="«interface»&lt;br&gt;&lt;b&gt;Inventory&lt;/b&gt;" style="html=1;" parent="1" vertex="1"><mxGeometry x="80" y="330" width="110" height="60" as="geometry"/></mxCell><mxCell id="lkY52QnpI_cOLhnNYV2R-12" style="edgeStyle=orthogonalEdgeStyle;rounded=0;orthogonalLoop=1;jettySize=auto;html=1;exitX=0.5;exitY=1;exitDx=0;exitDy=0;entryX=1;entryY=0;entryDx=0;entryDy=0;startArrow=none;" parent="1" source="lkY52QnpI_cOLhnNYV2R-17" target="lkY52QnpI_cOLhnNYV2R-5" edge="1"><mxGeometry relative="1" as="geometry"/></mxCell><mxCell id="lkY52QnpI_cOLhnNYV2R-13" value="interface weapon" style="swimlane;fontStyle=0;childLayout=stackLayout;horizontal=1;startSize=26;fillColor=none;horizontalStack=0;resizeParent=1;resizeParentMax=0;resizeLast=0;collapsible=1;marginBottom=0;" parent="1" vertex="1"><mxGeometry x="-70" y="472" width="140" height="104" as="geometry"/></mxCell><mxCell id="lkY52QnpI_cOLhnNYV2R-14" value="int: lvl" style="text;strokeColor=none;fillColor=none;align=left;verticalAlign=top;spacingLeft=4;spacingRight=4;overflow=hidden;rotatable=0;points=[[0,0.5],[1,0.5]];portConstraint=eastwest;" parent="lkY52QnpI_cOLhnNYV2R-13" vertex="1"><mxGeometry y="26" width="140" height="26" as="geometry"/></mxCell><mxCell id="lkY52QnpI_cOLhnNYV2R-15" value="double: hp" style="text;strokeColor=none;fillColor=none;align=left;verticalAlign=top;spacingLeft=4;spacingRight=4;overflow=hidden;rotatable=0;points=[[0,0.5],[1,0.5]];portConstraint=eastwest;" parent="lkY52QnpI_cOLhnNYV2R-13" vertex="1"><mxGeometry y="52" width="140" height="26" as="geometry"/></mxCell><mxCell id="lkY52QnpI_cOLhnNYV2R-16" value="double: attCof" style="text;strokeColor=none;fillColor=none;align=left;verticalAlign=top;spacingLeft=4;spacingRight=4;overflow=hidden;rotatable=0;points=[[0,0.5],[1,0.5]];portConstraint=eastwest;" parent="lkY52QnpI_cOLhnNYV2R-13" vertex="1"><mxGeometry y="78" width="140" height="26" as="geometry"/></mxCell><mxCell id="lkY52QnpI_cOLhnNYV2R-18" style="edgeStyle=orthogonalEdgeStyle;rounded=0;orthogonalLoop=1;jettySize=auto;html=1;exitX=0.5;exitY=1;exitDx=0;exitDy=0;entryX=0.5;entryY=0;entryDx=0;entryDy=0;" parent="1" source="lkY52QnpI_cOLhnNYV2R-21" target="lkY52QnpI_cOLhnNYV2R-23" edge="1"><mxGeometry relative="1" as="geometry"/></mxCell><mxCell id="lkY52QnpI_cOLhnNYV2R-19" style="edgeStyle=orthogonalEdgeStyle;rounded=0;orthogonalLoop=1;jettySize=auto;html=1;exitX=0.5;exitY=1;exitDx=0;exitDy=0;entryX=0.5;entryY=0;entryDx=0;entryDy=0;" parent="1" source="lkY52QnpI_cOLhnNYV2R-21" target="lkY52QnpI_cOLhnNYV2R-25" edge="1"><mxGeometry relative="1" as="geometry"/></mxCell><mxCell id="lkY52QnpI_cOLhnNYV2R-20" style="edgeStyle=orthogonalEdgeStyle;rounded=0;orthogonalLoop=1;jettySize=auto;html=1;exitX=0.5;exitY=1;exitDx=0;exitDy=0;entryX=0.5;entryY=0;entryDx=0;entryDy=0;" parent="1" source="lkY52QnpI_cOLhnNYV2R-21" target="lkY52QnpI_cOLhnNYV2R-27" edge="1"><mxGeometry relative="1" as="geometry"/></mxCell><mxCell id="lkY52QnpI_cOLhnNYV2R-21" value="interface UItems" style="swimlane;fontStyle=0;childLayout=stackLayout;horizontal=1;startSize=26;fillColor=none;horizontalStack=0;resizeParent=1;resizeParentMax=0;resizeLast=0;collapsible=1;marginBottom=0;" parent="1" vertex="1"><mxGeometry x="149" y="470" width="140" height="52" as="geometry"/></mxCell><mxCell id="lkY52QnpI_cOLhnNYV2R-22" value="int: coolDown(s)" style="text;strokeColor=none;fillColor=none;align=left;verticalAlign=top;spacingLeft=4;spacingRight=4;overflow=hidden;rotatable=0;points=[[0,0.5],[1,0.5]];portConstraint=eastwest;" parent="lkY52QnpI_cOLhnNYV2R-21" vertex="1"><mxGeometry y="26" width="140" height="26" as="geometry"/></mxCell><mxCell id="lkY52QnpI_cOLhnNYV2R-23" value="heal poison" style="swimlane;fontStyle=0;childLayout=stackLayout;horizontal=1;startSize=26;fillColor=none;horizontalStack=0;resizeParent=1;resizeParentMax=0;resizeLast=0;collapsible=1;marginBottom=0;" parent="1" vertex="1"><mxGeometry x="149" y="570" width="140" height="52" as="geometry"/></mxCell><mxCell id="lkY52QnpI_cOLhnNYV2R-24" value="int: ToHeal" style="text;strokeColor=none;fillColor=none;align=left;verticalAlign=top;spacingLeft=4;spacingRight=4;overflow=hidden;rotatable=0;points=[[0,0.5],[1,0.5]];portConstraint=eastwest;" parent="lkY52QnpI_cOLhnNYV2R-23" vertex="1"><mxGeometry y="26" width="140" height="26" as="geometry"/></mxCell><mxCell id="lkY52QnpI_cOLhnNYV2R-25" value="attack poison" style="swimlane;fontStyle=0;childLayout=stackLayout;horizontal=1;startSize=26;fillColor=none;horizontalStack=0;resizeParent=1;resizeParentMax=0;resizeLast=0;collapsible=1;marginBottom=0;" parent="1" vertex="1"><mxGeometry x="289" y="570" width="140" height="52" as="geometry"/></mxCell><mxCell id="lkY52QnpI_cOLhnNYV2R-26" value="double: ToAtk" style="text;strokeColor=none;fillColor=none;align=left;verticalAlign=top;spacingLeft=4;spacingRight=4;overflow=hidden;rotatable=0;points=[[0,0.5],[1,0.5]];portConstraint=eastwest;" parent="lkY52QnpI_cOLhnNYV2R-25" vertex="1"><mxGeometry y="26" width="140" height="26" as="geometry"/></mxCell><mxCell id="lkY52QnpI_cOLhnNYV2R-27" value="defence poison" style="swimlane;fontStyle=0;childLayout=stackLayout;horizontal=1;startSize=26;fillColor=none;horizontalStack=0;resizeParent=1;resizeParentMax=0;resizeLast=0;collapsible=1;marginBottom=0;" parent="1" vertex="1"><mxGeometry x="430" y="570" width="140" height="52" as="geometry"/></mxCell><mxCell id="lkY52QnpI_cOLhnNYV2R-28" value="double: ToDef" style="text;strokeColor=none;fillColor=none;align=left;verticalAlign=top;spacingLeft=4;spacingRight=4;overflow=hidden;rotatable=0;points=[[0,0.5],[1,0.5]];portConstraint=eastwest;" parent="lkY52QnpI_cOLhnNYV2R-27" vertex="1"><mxGeometry y="26" width="140" height="26" as="geometry"/></mxCell><mxCell id="lkY52QnpI_cOLhnNYV2R-17" value="double: hpCof" style="text;strokeColor=none;fillColor=none;align=left;verticalAlign=top;spacingLeft=4;spacingRight=4;overflow=hidden;rotatable=0;points=[[0,0.5],[1,0.5]];portConstraint=eastwest;" parent="1" vertex="1"><mxGeometry x="-70" y="576" width="140" height="26" as="geometry"/></mxCell><mxCell id="8mEIFu0-KQNCQhnWPLar-2" value="" style="edgeStyle=orthogonalEdgeStyle;rounded=0;orthogonalLoop=1;jettySize=auto;html=1;exitX=0.5;exitY=1;exitDx=0;exitDy=0;entryX=1;entryY=0;entryDx=0;entryDy=0;endArrow=none;" edge="1" parent="1" source="lkY52QnpI_cOLhnNYV2R-13" target="lkY52QnpI_cOLhnNYV2R-17"><mxGeometry relative="1" as="geometry"><mxPoint x="-2.2737367544323206e-13" y="602" as="sourcePoint"/><mxPoint x="-2.2737367544323206e-13" y="740" as="targetPoint"/><Array as="points"><mxPoint y="600"/><mxPoint x="70" y="600"/></Array></mxGeometry></mxCell><mxCell id="bABLwozv9ByX7oYkHGLe-13" value="Heavy" style="swimlane;fontStyle=0;childLayout=stackLayout;horizontal=1;startSize=26;fillColor=none;horizontalStack=0;resizeParent=1;resizeParentMax=0;resizeLast=0;collapsible=1;marginBottom=0;" vertex="1" parent="1"><mxGeometry x="-740" y="650" width="140" height="104" as="geometry"/></mxCell><mxCell id="bABLwozv9ByX7oYkHGLe-14" value="+ field: type" style="text;strokeColor=none;fillColor=none;align=left;verticalAlign=top;spacingLeft=4;spacingRight=4;overflow=hidden;rotatable=0;points=[[0,0.5],[1,0.5]];portConstraint=eastwest;" vertex="1" parent="bABLwozv9ByX7oYkHGLe-13"><mxGeometry y="26" width="140" height="26" as="geometry"/></mxCell><mxCell id="bABLwozv9ByX7oYkHGLe-15" value="+ field: type" style="text;strokeColor=none;fillColor=none;align=left;verticalAlign=top;spacingLeft=4;spacingRight=4;overflow=hidden;rotatable=0;points=[[0,0.5],[1,0.5]];portConstraint=eastwest;" vertex="1" parent="bABLwozv9ByX7oYkHGLe-13"><mxGeometry y="52" width="140" height="26" as="geometry"/></mxCell><mxCell id="bABLwozv9ByX7oYkHGLe-16" value="+ field: type" style="text;strokeColor=none;fillColor=none;align=left;verticalAlign=top;spacingLeft=4;spacingRight=4;overflow=hidden;rotatable=0;points=[[0,0.5],[1,0.5]];portConstraint=eastwest;" vertex="1" parent="bABLwozv9ByX7oYkHGLe-13"><mxGeometry y="78" width="140" height="26" as="geometry"/></mxCell><mxCell id="bABLwozv9ByX7oYkHGLe-17" value="Medium" style="swimlane;fontStyle=0;childLayout=stackLayout;horizontal=1;startSize=26;fillColor=none;horizontalStack=0;resizeParent=1;resizeParentMax=0;resizeLast=0;collapsible=1;marginBottom=0;" vertex="1" parent="1"><mxGeometry x="-600" y="650" width="140" height="104" as="geometry"/></mxCell><mxCell id="bABLwozv9ByX7oYkHGLe-18" value="+ field: type" style="text;strokeColor=none;fillColor=none;align=left;verticalAlign=top;spacingLeft=4;spacingRight=4;overflow=hidden;rotatable=0;points=[[0,0.5],[1,0.5]];portConstraint=eastwest;" vertex="1" parent="bABLwozv9ByX7oYkHGLe-17"><mxGeometry y="26" width="140" height="26" as="geometry"/></mxCell><mxCell id="bABLwozv9ByX7oYkHGLe-19" value="+ field: type" style="text;strokeColor=none;fillColor=none;align=left;verticalAlign=top;spacingLeft=4;spacingRight=4;overflow=hidden;rotatable=0;points=[[0,0.5],[1,0.5]];portConstraint=eastwest;" vertex="1" parent="bABLwozv9ByX7oYkHGLe-17"><mxGeometry y="52" width="140" height="26" as="geometry"/></mxCell><mxCell id="bABLwozv9ByX7oYkHGLe-20" value="+ field: type" style="text;strokeColor=none;fillColor=none;align=left;verticalAlign=top;spacingLeft=4;spacingRight=4;overflow=hidden;rotatable=0;points=[[0,0.5],[1,0.5]];portConstraint=eastwest;" vertex="1" parent="bABLwozv9ByX7oYkHGLe-17"><mxGeometry y="78" width="140" height="26" as="geometry"/></mxCell><mxCell id="bABLwozv9ByX7oYkHGLe-21" value="Light" style="swimlane;fontStyle=0;childLayout=stackLayout;horizontal=1;startSize=26;fillColor=none;horizontalStack=0;resizeParent=1;resizeParentMax=0;resizeLast=0;collapsible=1;marginBottom=0;" vertex="1" parent="1"><mxGeometry x="-460" y="650" width="140" height="104" as="geometry"/></mxCell><mxCell id="bABLwozv9ByX7oYkHGLe-22" value="+ field: type" style="text;strokeColor=none;fillColor=none;align=left;verticalAlign=top;spacingLeft=4;spacingRight=4;overflow=hidden;rotatable=0;points=[[0,0.5],[1,0.5]];portConstraint=eastwest;" vertex="1" parent="bABLwozv9ByX7oYkHGLe-21"><mxGeometry y="26" width="140" height="26" as="geometry"/></mxCell><mxCell id="bABLwozv9ByX7oYkHGLe-23" value="+ field: type" style="text;strokeColor=none;fillColor=none;align=left;verticalAlign=top;spacingLeft=4;spacingRight=4;overflow=hidden;rotatable=0;points=[[0,0.5],[1,0.5]];portConstraint=eastwest;" vertex="1" parent="bABLwozv9ByX7oYkHGLe-21"><mxGeometry y="52" width="140" height="26" as="geometry"/></mxCell><mxCell id="bABLwozv9ByX7oYkHGLe-24" value="+ field: type" style="text;strokeColor=none;fillColor=none;align=left;verticalAlign=top;spacingLeft=4;spacingRight=4;overflow=hidden;rotatable=0;points=[[0,0.5],[1,0.5]];portConstraint=eastwest;" vertex="1" parent="bABLwozv9ByX7oYkHGLe-21"><mxGeometry y="78" width="140" height="26" as="geometry"/></mxCell><mxCell id="bABLwozv9ByX7oYkHGLe-31" style="edgeStyle=orthogonalEdgeStyle;rounded=0;orthogonalLoop=1;jettySize=auto;html=1;exitX=0.5;exitY=1;exitDx=0;exitDy=0;entryX=0.5;entryY=0;entryDx=0;entryDy=0;" edge="1" parent="1" source="bABLwozv9ByX7oYkHGLe-25" target="bABLwozv9ByX7oYkHGLe-21"><mxGeometry relative="1" as="geometry"/></mxCell><mxCell id="bABLwozv9ByX7oYkHGLe-32" style="edgeStyle=orthogonalEdgeStyle;rounded=0;orthogonalLoop=1;jettySize=auto;html=1;exitX=0.5;exitY=1;exitDx=0;exitDy=0;entryX=0.5;entryY=0;entryDx=0;entryDy=0;" edge="1" parent="1" source="bABLwozv9ByX7oYkHGLe-25" target="bABLwozv9ByX7oYkHGLe-17"><mxGeometry relative="1" as="geometry"/></mxCell><mxCell id="bABLwozv9ByX7oYkHGLe-33" style="edgeStyle=orthogonalEdgeStyle;rounded=0;orthogonalLoop=1;jettySize=auto;html=1;exitX=0.5;exitY=1;exitDx=0;exitDy=0;entryX=0.5;entryY=0;entryDx=0;entryDy=0;" edge="1" parent="1" source="bABLwozv9ByX7oYkHGLe-25" target="bABLwozv9ByX7oYkHGLe-13"><mxGeometry relative="1" as="geometry"/></mxCell><mxCell id="bABLwozv9ByX7oYkHGLe-25" value="interface: armor" style="swimlane;fontStyle=0;childLayout=stackLayout;horizontal=1;startSize=26;fillColor=none;horizontalStack=0;resizeParent=1;resizeParentMax=0;resizeLast=0;collapsible=1;marginBottom=0;" vertex="1" parent="1"><mxGeometry x="-425" y="472" width="140" height="130" as="geometry"/></mxCell><mxCell id="bABLwozv9ByX7oYkHGLe-26" value="int: lvl" style="text;strokeColor=none;fillColor=none;align=left;verticalAlign=top;spacingLeft=4;spacingRight=4;overflow=hidden;rotatable=0;points=[[0,0.5],[1,0.5]];portConstraint=eastwest;" vertex="1" parent="bABLwozv9ByX7oYkHGLe-25"><mxGeometry y="26" width="140" height="26" as="geometry"/></mxCell><mxCell id="bABLwozv9ByX7oYkHGLe-27" value="double: hp" style="text;strokeColor=none;fillColor=none;align=left;verticalAlign=top;spacingLeft=4;spacingRight=4;overflow=hidden;rotatable=0;points=[[0,0.5],[1,0.5]];portConstraint=eastwest;" vertex="1" parent="bABLwozv9ByX7oYkHGLe-25"><mxGeometry y="52" width="140" height="26" as="geometry"/></mxCell><mxCell id="bABLwozv9ByX7oYkHGLe-29" value="double: defCof" style="text;strokeColor=none;fillColor=none;align=left;verticalAlign=top;spacingLeft=4;spacingRight=4;overflow=hidden;rotatable=0;points=[[0,0.5],[1,0.5]];portConstraint=eastwest;" vertex="1" parent="bABLwozv9ByX7oYkHGLe-25"><mxGeometry y="78" width="140" height="26" as="geometry"/></mxCell><mxCell id="bABLwozv9ByX7oYkHGLe-30" value="double: hpCof" style="text;strokeColor=none;fillColor=none;align=left;verticalAlign=top;spacingLeft=4;spacingRight=4;overflow=hidden;rotatable=0;points=[[0,0.5],[1,0.5]];portConstraint=eastwest;" vertex="1" parent="bABLwozv9ByX7oYkHGLe-25"><mxGeometry y="104" width="140" height="26" as="geometry"/></mxCell></root></mxGraphModel></diagram><diagram id="chtflK9mRNw5Y9Tt7oOp" name="rase"><mxGraphModel dx="1279" dy="534" grid="1" gridSize="10" guides="1" tooltips="1" connect="1" arrows="1" fold="1" page="1" pageScale="1" pageWidth="850" pageHeight="1100" math="0" shadow="0"><root><mxCell id="0"/><mxCell id="1" parent="0"/><mxCell id="2P50frNc_rhibCdpYmj--1" value="Human" style="swimlane;fontStyle=1;align=center;verticalAlign=top;childLayout=stackLayout;horizontal=1;startSize=26;horizontalStack=0;resizeParent=1;resizeParentMax=0;resizeLast=0;collapsible=1;marginBottom=0;" vertex="1" parent="1"><mxGeometry x="110" y="360" width="160" height="208" as="geometry"/></mxCell><mxCell id="2P50frNc_rhibCdpYmj--2" value="slots in inv: 10" style="text;strokeColor=none;fillColor=none;align=left;verticalAlign=top;spacingLeft=4;spacingRight=4;overflow=hidden;rotatable=0;points=[[0,0.5],[1,0.5]];portConstraint=eastwest;" vertex="1" parent="2P50frNc_rhibCdpYmj--1"><mxGeometry y="26" width="160" height="26" as="geometry"/></mxCell><mxCell id="2P50frNc_rhibCdpYmj--3" value="hp: 100.0" style="text;strokeColor=none;fillColor=none;align=left;verticalAlign=top;spacingLeft=4;spacingRight=4;overflow=hidden;rotatable=0;points=[[0,0.5],[1,0.5]];portConstraint=eastwest;" vertex="1" parent="2P50frNc_rhibCdpYmj--1"><mxGeometry y="52" width="160" height="26" as="geometry"/></mxCell><mxCell id="2P50frNc_rhibCdpYmj--4" value="hp for lvl: x1.1" style="text;strokeColor=none;fillColor=none;align=left;verticalAlign=top;spacingLeft=4;spacingRight=4;overflow=hidden;rotatable=0;points=[[0,0.5],[1,0.5]];portConstraint=eastwest;" vertex="1" parent="2P50frNc_rhibCdpYmj--1"><mxGeometry y="78" width="160" height="26" as="geometry"/></mxCell><mxCell id="2P50frNc_rhibCdpYmj--5" value="Attack: 1.0" style="text;strokeColor=none;fillColor=none;align=left;verticalAlign=top;spacingLeft=4;spacingRight=4;overflow=hidden;rotatable=0;points=[[0,0.5],[1,0.5]];portConstraint=eastwest;" vertex="1" parent="2P50frNc_rhibCdpYmj--1"><mxGeometry y="104" width="160" height="26" as="geometry"/></mxCell><mxCell id="2P50frNc_rhibCdpYmj--6" value="atk for lvl: x2.0" style="text;strokeColor=none;fillColor=none;align=left;verticalAlign=top;spacingLeft=4;spacingRight=4;overflow=hidden;rotatable=0;points=[[0,0.5],[1,0.5]];portConstraint=eastwest;" vertex="1" parent="2P50frNc_rhibCdpYmj--1"><mxGeometry y="130" width="160" height="26" as="geometry"/></mxCell><mxCell id="2P50frNc_rhibCdpYmj--7" value="def: 5.0" style="text;strokeColor=none;fillColor=none;align=left;verticalAlign=top;spacingLeft=4;spacingRight=4;overflow=hidden;rotatable=0;points=[[0,0.5],[1,0.5]];portConstraint=eastwest;" vertex="1" parent="2P50frNc_rhibCdpYmj--1"><mxGeometry y="156" width="160" height="26" as="geometry"/></mxCell><mxCell id="2P50frNc_rhibCdpYmj--8" value="def for lvl: x1.5" style="text;strokeColor=none;fillColor=none;align=left;verticalAlign=top;spacingLeft=4;spacingRight=4;overflow=hidden;rotatable=0;points=[[0,0.5],[1,0.5]];portConstraint=eastwest;" vertex="1" parent="2P50frNc_rhibCdpYmj--1"><mxGeometry y="182" width="160" height="26" as="geometry"/></mxCell><mxCell id="2P50frNc_rhibCdpYmj--9" value="gnome" style="swimlane;fontStyle=1;align=center;verticalAlign=top;childLayout=stackLayout;horizontal=1;startSize=26;horizontalStack=0;resizeParent=1;resizeParentMax=0;resizeLast=0;collapsible=1;marginBottom=0;" vertex="1" parent="1"><mxGeometry x="270" y="360" width="160" height="208" as="geometry"/></mxCell><mxCell id="2P50frNc_rhibCdpYmj--10" value="slots in inv: 7" style="text;strokeColor=none;fillColor=none;align=left;verticalAlign=top;spacingLeft=4;spacingRight=4;overflow=hidden;rotatable=0;points=[[0,0.5],[1,0.5]];portConstraint=eastwest;" vertex="1" parent="2P50frNc_rhibCdpYmj--9"><mxGeometry y="26" width="160" height="26" as="geometry"/></mxCell><mxCell id="2P50frNc_rhibCdpYmj--11" value="hp: 120.0" style="text;strokeColor=none;fillColor=none;align=left;verticalAlign=top;spacingLeft=4;spacingRight=4;overflow=hidden;rotatable=0;points=[[0,0.5],[1,0.5]];portConstraint=eastwest;" vertex="1" parent="2P50frNc_rhibCdpYmj--9"><mxGeometry y="52" width="160" height="26" as="geometry"/></mxCell><mxCell id="2P50frNc_rhibCdpYmj--12" value="hp for lvl: x1.5" style="text;strokeColor=none;fillColor=none;align=left;verticalAlign=top;spacingLeft=4;spacingRight=4;overflow=hidden;rotatable=0;points=[[0,0.5],[1,0.5]];portConstraint=eastwest;" vertex="1" parent="2P50frNc_rhibCdpYmj--9"><mxGeometry y="78" width="160" height="26" as="geometry"/></mxCell><mxCell id="2P50frNc_rhibCdpYmj--13" value="Attack: 3.0" style="text;strokeColor=none;fillColor=none;align=left;verticalAlign=top;spacingLeft=4;spacingRight=4;overflow=hidden;rotatable=0;points=[[0,0.5],[1,0.5]];portConstraint=eastwest;" vertex="1" parent="2P50frNc_rhibCdpYmj--9"><mxGeometry y="104" width="160" height="26" as="geometry"/></mxCell><mxCell id="2P50frNc_rhibCdpYmj--14" value="atk for lvl: x1.5" style="text;strokeColor=none;fillColor=none;align=left;verticalAlign=top;spacingLeft=4;spacingRight=4;overflow=hidden;rotatable=0;points=[[0,0.5],[1,0.5]];portConstraint=eastwest;" vertex="1" parent="2P50frNc_rhibCdpYmj--9"><mxGeometry y="130" width="160" height="26" as="geometry"/></mxCell><mxCell id="2P50frNc_rhibCdpYmj--15" value="def: 2.0" style="text;strokeColor=none;fillColor=none;align=left;verticalAlign=top;spacingLeft=4;spacingRight=4;overflow=hidden;rotatable=0;points=[[0,0.5],[1,0.5]];portConstraint=eastwest;" vertex="1" parent="2P50frNc_rhibCdpYmj--9"><mxGeometry y="156" width="160" height="26" as="geometry"/></mxCell><mxCell id="2P50frNc_rhibCdpYmj--16" value="def for lvl: x2.5" style="text;strokeColor=none;fillColor=none;align=left;verticalAlign=top;spacingLeft=4;spacingRight=4;overflow=hidden;rotatable=0;points=[[0,0.5],[1,0.5]];portConstraint=eastwest;" vertex="1" parent="2P50frNc_rhibCdpYmj--9"><mxGeometry y="182" width="160" height="26" as="geometry"/></mxCell><mxCell id="2P50frNc_rhibCdpYmj--17" value="elf" style="swimlane;fontStyle=1;align=center;verticalAlign=top;childLayout=stackLayout;horizontal=1;startSize=26;horizontalStack=0;resizeParent=1;resizeParentMax=0;resizeLast=0;collapsible=1;marginBottom=0;" vertex="1" parent="1"><mxGeometry x="430" y="360" width="160" height="208" as="geometry"/></mxCell><mxCell id="2P50frNc_rhibCdpYmj--18" value="slots in inv: 5" style="text;strokeColor=none;fillColor=none;align=left;verticalAlign=top;spacingLeft=4;spacingRight=4;overflow=hidden;rotatable=0;points=[[0,0.5],[1,0.5]];portConstraint=eastwest;" vertex="1" parent="2P50frNc_rhibCdpYmj--17"><mxGeometry y="26" width="160" height="26" as="geometry"/></mxCell><mxCell id="2P50frNc_rhibCdpYmj--19" value="hp: 70.0" style="text;strokeColor=none;fillColor=none;align=left;verticalAlign=top;spacingLeft=4;spacingRight=4;overflow=hidden;rotatable=0;points=[[0,0.5],[1,0.5]];portConstraint=eastwest;" vertex="1" parent="2P50frNc_rhibCdpYmj--17"><mxGeometry y="52" width="160" height="26" as="geometry"/></mxCell><mxCell id="2P50frNc_rhibCdpYmj--20" value="hp for lvl: x1.7" style="text;strokeColor=none;fillColor=none;align=left;verticalAlign=top;spacingLeft=4;spacingRight=4;overflow=hidden;rotatable=0;points=[[0,0.5],[1,0.5]];portConstraint=eastwest;" vertex="1" parent="2P50frNc_rhibCdpYmj--17"><mxGeometry y="78" width="160" height="26" as="geometry"/></mxCell><mxCell id="2P50frNc_rhibCdpYmj--21" value="Attack: 2.0" style="text;strokeColor=none;fillColor=none;align=left;verticalAlign=top;spacingLeft=4;spacingRight=4;overflow=hidden;rotatable=0;points=[[0,0.5],[1,0.5]];portConstraint=eastwest;" vertex="1" parent="2P50frNc_rhibCdpYmj--17"><mxGeometry y="104" width="160" height="26" as="geometry"/></mxCell><mxCell id="2P50frNc_rhibCdpYmj--22" value="atk for lvl: x2.5" style="text;strokeColor=none;fillColor=none;align=left;verticalAlign=top;spacingLeft=4;spacingRight=4;overflow=hidden;rotatable=0;points=[[0,0.5],[1,0.5]];portConstraint=eastwest;" vertex="1" parent="2P50frNc_rhibCdpYmj--17"><mxGeometry y="130" width="160" height="26" as="geometry"/></mxCell><mxCell id="2P50frNc_rhibCdpYmj--23" value="def: 1.0" style="text;strokeColor=none;fillColor=none;align=left;verticalAlign=top;spacingLeft=4;spacingRight=4;overflow=hidden;rotatable=0;points=[[0,0.5],[1,0.5]];portConstraint=eastwest;" vertex="1" parent="2P50frNc_rhibCdpYmj--17"><mxGeometry y="156" width="160" height="26" as="geometry"/></mxCell><mxCell id="2P50frNc_rhibCdpYmj--24" value="def for lvl: x2.0" style="text;strokeColor=none;fillColor=none;align=left;verticalAlign=top;spacingLeft=4;spacingRight=4;overflow=hidden;rotatable=0;points=[[0,0.5],[1,0.5]];portConstraint=eastwest;" vertex="1" parent="2P50frNc_rhibCdpYmj--17"><mxGeometry y="182" width="160" height="26" as="geometry"/></mxCell><mxCell id="2P50frNc_rhibCdpYmj--25" value="orc" style="swimlane;fontStyle=1;align=center;verticalAlign=top;childLayout=stackLayout;horizontal=1;startSize=26;horizontalStack=0;resizeParent=1;resizeParentMax=0;resizeLast=0;collapsible=1;marginBottom=0;" vertex="1" parent="1"><mxGeometry x="591.0000000000001" y="360" width="160" height="208" as="geometry"/></mxCell><mxCell id="2P50frNc_rhibCdpYmj--26" value="slots in inv: 15" style="text;strokeColor=none;fillColor=none;align=left;verticalAlign=top;spacingLeft=4;spacingRight=4;overflow=hidden;rotatable=0;points=[[0,0.5],[1,0.5]];portConstraint=eastwest;" vertex="1" parent="2P50frNc_rhibCdpYmj--25"><mxGeometry y="26" width="160" height="26" as="geometry"/></mxCell><mxCell id="2P50frNc_rhibCdpYmj--27" value="hp: 150.0" style="text;strokeColor=none;fillColor=none;align=left;verticalAlign=top;spacingLeft=4;spacingRight=4;overflow=hidden;rotatable=0;points=[[0,0.5],[1,0.5]];portConstraint=eastwest;" vertex="1" parent="2P50frNc_rhibCdpYmj--25"><mxGeometry y="52" width="160" height="26" as="geometry"/></mxCell><mxCell id="2P50frNc_rhibCdpYmj--28" value="hp for lvl: x1.0" style="text;strokeColor=none;fillColor=none;align=left;verticalAlign=top;spacingLeft=4;spacingRight=4;overflow=hidden;rotatable=0;points=[[0,0.5],[1,0.5]];portConstraint=eastwest;" vertex="1" parent="2P50frNc_rhibCdpYmj--25"><mxGeometry y="78" width="160" height="26" as="geometry"/></mxCell><mxCell id="2P50frNc_rhibCdpYmj--29" value="Attack: 5.0" style="text;strokeColor=none;fillColor=none;align=left;verticalAlign=top;spacingLeft=4;spacingRight=4;overflow=hidden;rotatable=0;points=[[0,0.5],[1,0.5]];portConstraint=eastwest;" vertex="1" parent="2P50frNc_rhibCdpYmj--25"><mxGeometry y="104" width="160" height="26" as="geometry"/></mxCell><mxCell id="2P50frNc_rhibCdpYmj--30" value="atk for lvl: x1.1" style="text;strokeColor=none;fillColor=none;align=left;verticalAlign=top;spacingLeft=4;spacingRight=4;overflow=hidden;rotatable=0;points=[[0,0.5],[1,0.5]];portConstraint=eastwest;" vertex="1" parent="2P50frNc_rhibCdpYmj--25"><mxGeometry y="130" width="160" height="26" as="geometry"/></mxCell><mxCell id="2P50frNc_rhibCdpYmj--31" value="def: 8.0" style="text;strokeColor=none;fillColor=none;align=left;verticalAlign=top;spacingLeft=4;spacingRight=4;overflow=hidden;rotatable=0;points=[[0,0.5],[1,0.5]];portConstraint=eastwest;" vertex="1" parent="2P50frNc_rhibCdpYmj--25"><mxGeometry y="156" width="160" height="26" as="geometry"/></mxCell><mxCell id="2P50frNc_rhibCdpYmj--32" value="def for lvl: x1.1" style="text;strokeColor=none;fillColor=none;align=left;verticalAlign=top;spacingLeft=4;spacingRight=4;overflow=hidden;rotatable=0;points=[[0,0.5],[1,0.5]];portConstraint=eastwest;" vertex="1" parent="2P50frNc_rhibCdpYmj--25"><mxGeometry y="182" width="160" height="26" as="geometry"/></mxCell><mxCell id="2P50frNc_rhibCdpYmj--33" value="intefaces" style="rounded=0;whiteSpace=wrap;html=1;" vertex="1" parent="1"><mxGeometry x="110" y="320" width="640" height="40" as="geometry"/></mxCell></root></mxGraphModel></diagram></mxfile>